# xmcd CD database file
#
# Track frame offsets:
#	150
#	14527
#	27595
#	39662
#	50365
#	63965
#	76340
#	88152
#	100255
#	114755
#	126210
#	142135
#	151587
#	166690
#	176132
#	189592
#	201112
#	214447
#	224562
#	236797
#	249927
#	261227
#	271990
#	286472
#	297502
#	311930
#	324975
#	336410
#
# Disc length: 4618 seconds
#
# Revision: 2
# Processed by: cddbd v1.4PL0 Copyright (c) Steve Scherf et al.
# Submitted via: CDex 1.40Beta9
#
DISCID=b012081c
DTITLE=Narvel Felts - Drift Away -The Best of Narvel Felts
DYEAR=1900
DGENRE=
TTITLE0=Drift Away
TTITLE1=Before You Have to Go
TTITLE2=All in the Name of Love
TTITLE3=Rockin Little Angel
TTITLE4=When Your Good Love was Mine
TTITLE5=Fraulein
TTITLE6=Until the End of Time
TTITLE7=She Loves me Like a Rock
TTITLE8=I Want to Stay
TTITLE9=(I Can) Wrap my Arms Around the World
TTITLE10=Reconsider Me
TTITLE11=Foggy Misty Morning
TTITLE12=Funny How Love Slips Away
TTITLE13=Blue Suede Shoes
TTITLE14=Somebody Hold Me (Until She Passes By)
TTITLE15=Away
TTITLE16=Lonely Teardrops
TTITLE17=Lonely Kind of Love
TTITLE18=My Prayer
TTITLE19=Garden of Eden
TTITLE20=The Feeling's Right
TTITLE21=Moments to Remember
TTITLE22=To Love Somebody
TTITLE23=Stirrin' Up Feelin's
TTITLE24=One Run for the Roses
TTITLE25=Never Again
TTITLE26=Everlasting Love
TTITLE27=The End
EXTD=
EXTT0=
EXTT1=
EXTT2=
EXTT3=
EXTT4=
EXTT5=
EXTT6=
EXTT7=
EXTT8=
EXTT9=
EXTT10=
EXTT11=
EXTT12=
EXTT13=
EXTT14=
EXTT15=
EXTT16=
EXTT17=
EXTT18=
EXTT19=
EXTT20=
EXTT21=
EXTT22=
EXTT23=
EXTT24=
EXTT25=
EXTT26=
EXTT27=
PLAYORDER=
